<svg width="27" height="27" viewBox="0 0 27 27" fill="none" xmlns="http://www.w3.org/2000/svg">
<g clip-path="url(#clip0_23_184)">
<path d="M25.8496 14.6055L16.4197 22.8412C16.0543 23.1655 15.5711 23.325 15.0878 23.325C14.6045 23.325 14.1224 23.1642 13.7546 22.8425C13.0179 22.1991 13.0179 21.1567 13.7546 20.5133L19.9677 15.0893H1.88594C0.84453 15.0893 6.10352e-05 14.3532 6.10352e-05 13.4422C6.10352e-05 12.5311 0.84453 11.795 1.88594 11.795H19.9677L13.7558 6.36974C13.0191 5.72633 13.0191 4.68399 13.7558 4.04058C14.4925 3.39716 15.686 3.39716 16.4227 4.04058L25.8526 12.2763C26.5863 12.9223 26.5863 13.9621 25.8496 14.6055Z" fill="#FCFCFC"/>
</g>
<defs>
<clipPath id="clip0_23_184">
<rect y="0.265015" width="26.4037" height="26.3543" rx="13.1772" fill="white"/>
</clipPath>
</defs>
</svg>
