<svg width="80" height="50" viewBox="0 0 80 50" fill="none" xmlns="http://www.w3.org/2000/svg">
<path d="M17.1429 20C15.1286 20 13.2232 20.3594 11.4286 20.9219V20C11.4286 14.4844 16.5536 10 22.8571 10C26.0125 10 28.5714 7.76094 28.5714 5C28.5714 2.23906 26.0179 0 22.8571 0C10.2536 0 0 8.96875 0 20V35C0 43.2844 7.675 50 17.1429 50C26.6107 50 34.2857 43.2844 34.2857 35C34.2857 26.7156 26.6071 20 17.1429 20ZM62.8571 20C60.8429 20 58.9375 20.3602 57.1429 20.9186V20C57.1429 14.4844 62.2679 10 68.5714 10C71.7268 10 74.2857 7.76094 74.2857 5C74.2857 2.23906 71.7268 0 68.5714 0C55.9679 0 45.7143 8.97187 45.7143 20V35C45.7143 43.2844 53.3893 50 62.8571 50C72.325 50 80 43.2844 80 35C80 26.7156 72.3214 20 62.8571 20Z" fill="#FF6700"/>
</svg>
