<svg width="69" height="70" viewBox="0 0 69 70" fill="none" xmlns="http://www.w3.org/2000/svg">
<g clip-path="url(#clip0_23_215)">
<path d="M34.2592 70C15.3363 70 -6.10352e-05 54.332 -6.10352e-05 35C-6.10352e-05 15.668 15.3363 0 34.2592 0C53.1821 0 68.5185 15.668 68.5185 35C68.5185 54.332 53.1821 70 34.2592 70ZM31.0474 35C31.0474 36.0938 31.5827 37.1191 32.4793 37.6113L45.3265 46.3613C46.7986 47.4824 48.7926 47.0723 49.6625 45.5684C50.7598 44.0645 50.3584 42.0273 48.8863 41.0156L37.471 33.25V16.4062C37.471 14.5879 36.0391 13.125 34.1388 13.125C32.4793 13.125 30.927 14.5879 30.927 16.4062L31.0474 35Z" fill="#FF6700"/>
</g>
<defs>
<clipPath id="clip0_23_215">
<rect width="68.5185" height="70" fill="white"/>
</clipPath>
</defs>
</svg>
