<svg width="78" height="70" viewBox="0 0 78 70" fill="none" xmlns="http://www.w3.org/2000/svg">
<g clip-path="url(#clip0_23_228)">
<path d="M68.5185 4.375C73.2426 4.375 77.0834 8.29199 77.0834 13.125V17.5H6.10352e-05V13.125C6.10352e-05 8.29199 3.83415 4.375 8.56487 4.375H68.5185ZM77.0834 56.875C77.0834 61.7012 73.2426 65.625 68.5185 65.625H8.56487C3.83415 65.625 6.10352e-05 61.7012 6.10352e-05 56.875V30.625H77.0834V56.875ZM14.9885 48.125C13.8108 48.125 12.8473 49.1094 12.8473 50.3125C12.8473 51.5156 13.8108 52.5 14.9885 52.5H23.5533C24.7309 52.5 25.6945 51.5156 25.6945 50.3125C25.6945 49.1094 24.7309 48.125 23.5533 48.125H14.9885ZM32.1181 52.5H49.2477C50.4254 52.5 51.3889 51.5156 51.3889 50.3125C51.3889 49.1094 50.4254 48.125 49.2477 48.125H32.1181C30.9404 48.125 29.9769 49.1094 29.9769 50.3125C29.9769 51.5156 30.9404 52.5 32.1181 52.5Z" fill="#FF6700"/>
</g>
<defs>
<clipPath id="clip0_23_228">
<rect width="77.0833" height="70" fill="white"/>
</clipPath>
</defs>
</svg>
