<svg width="153" height="25" viewBox="0 0 153 25" fill="none" xmlns="http://www.w3.org/2000/svg">
<g clip-path="url(#clip0_23_542)">
<path d="M16.5451 7.33882L22.7821 8.37398C23.2986 8.45699 23.7326 8.86714 23.8976 9.42867C24.0625 9.99507 23.9279 10.6103 23.5547 11.0302L19.0321 16.0205L20.0998 23.1787C20.1866 23.7646 19.974 24.3603 19.5399 24.707C19.1102 25.0537 18.5417 25.0976 18.0773 24.8193L12.5043 21.4746L6.93576 24.8193C6.46701 25.0976 5.89844 25.0537 5.46875 24.707C5.03906 24.3603 4.82205 23.7646 4.91319 23.1787L5.9809 16.0205L1.45747 11.0302C1.08377 10.6103 0.950955 9.99507 1.11502 9.42867C1.27865 8.86714 1.71137 8.45699 2.23177 8.37398L8.46354 7.33882L11.2587 0.877397C11.4887 0.339507 11.9748 -0.00195312 12.5043 -0.00195312C13.0382 -0.00195312 13.5243 0.339507 13.7543 0.877397L16.5451 7.33882Z" fill="#EEAD2D"/>
</g>
<g clip-path="url(#clip1_23_542)">
<path d="M48.5451 7.33882L54.7821 8.37398C55.2986 8.45699 55.7326 8.86714 55.8976 9.42867C56.0625 9.99507 55.9279 10.6103 55.5547 11.0302L51.0321 16.0205L52.0998 23.1787C52.1866 23.7646 51.974 24.3603 51.5399 24.707C51.1102 25.0537 50.5417 25.0976 50.0773 24.8193L44.5043 21.4746L38.9358 24.8193C38.467 25.0976 37.8984 25.0537 37.4687 24.707C37.0391 24.3603 36.822 23.7646 36.9132 23.1787L37.9809 16.0205L33.4575 11.0302C33.0838 10.6103 32.951 9.99507 33.115 9.42867C33.2786 8.86714 33.7114 8.45699 34.2318 8.37398L40.4635 7.33882L43.2587 0.877397C43.4887 0.339507 43.9748 -0.00195312 44.5043 -0.00195312C45.0382 -0.00195312 45.5243 0.339507 45.7543 0.877397L48.5451 7.33882Z" fill="#EEAD2D"/>
</g>
<g clip-path="url(#clip2_23_542)">
<path d="M80.5451 7.33882L86.7821 8.37398C87.2986 8.45699 87.7326 8.86714 87.8976 9.42867C88.0625 9.99507 87.928 10.6103 87.5547 11.0302L83.0321 16.0205L84.0998 23.1787C84.1866 23.7646 83.974 24.3603 83.5399 24.707C83.1102 25.0537 82.5417 25.0976 82.0773 24.8193L76.5043 21.4746L70.9358 24.8193C70.467 25.0976 69.8984 25.0537 69.4688 24.707C69.0391 24.3603 68.8221 23.7646 68.9132 23.1787L69.9809 16.0205L65.4575 11.0302C65.0838 10.6103 64.951 9.99507 65.115 9.42867C65.2786 8.86714 65.7114 8.45699 66.2318 8.37398L72.4635 7.33882L75.2587 0.877397C75.4887 0.339507 75.9748 -0.00195312 76.5043 -0.00195312C77.0382 -0.00195312 77.5243 0.339507 77.7543 0.877397L80.5451 7.33882Z" fill="#EEAD2D"/>
</g>
<g clip-path="url(#clip3_23_542)">
<path d="M112.545 7.33882L118.782 8.37398C119.299 8.45699 119.733 8.86714 119.898 9.42867C120.063 9.99507 119.928 10.6103 119.555 11.0302L115.032 16.0205L116.1 23.1787C116.187 23.7646 115.974 24.3603 115.54 24.707C115.11 25.0537 114.542 25.0976 114.077 24.8193L108.504 21.4746L102.936 24.8193C102.467 25.0976 101.898 25.0537 101.469 24.707C101.039 24.3603 100.822 23.7646 100.913 23.1787L101.981 16.0205L97.4575 11.0302C97.0838 10.6103 96.951 9.99507 97.115 9.42867C97.2786 8.86714 97.7114 8.45699 98.2318 8.37398L104.464 7.33882L107.259 0.877397C107.489 0.339507 107.975 -0.00195312 108.504 -0.00195312C109.038 -0.00195312 109.524 0.339507 109.754 0.877397L112.545 7.33882Z" fill="#EEAD2D"/>
</g>
<g clip-path="url(#clip4_23_542)">
<path d="M144.545 7.33882L150.782 8.37398C151.299 8.45699 151.733 8.86714 151.898 9.42867C152.063 9.99507 151.928 10.6103 151.555 11.0302L147.032 16.0205L148.1 23.1787C148.187 23.7646 147.974 24.3603 147.54 24.707C147.11 25.0537 146.542 25.0976 146.077 24.8193L140.504 21.4746L134.936 24.8193C134.467 25.0976 133.898 25.0537 133.469 24.707C133.039 24.3603 132.822 23.7646 132.913 23.1787L133.981 16.0205L129.457 11.0302C129.084 10.6103 128.951 9.99507 129.115 9.42867C129.279 8.86714 129.711 8.45699 130.232 8.37398L136.464 7.33882L139.259 0.877397C139.489 0.339507 139.975 -0.00195312 140.504 -0.00195312C141.038 -0.00195312 141.524 0.339507 141.754 0.877397L144.545 7.33882Z" fill="#EEAD2D"/>
</g>
<defs>
<clipPath id="clip0_23_542">
<rect width="25" height="25" fill="white"/>
</clipPath>
<clipPath id="clip1_23_542">
<rect width="25" height="25" fill="white" transform="translate(32)"/>
</clipPath>
<clipPath id="clip2_23_542">
<rect width="25" height="25" fill="white" transform="translate(64)"/>
</clipPath>
<clipPath id="clip3_23_542">
<rect width="25" height="25" fill="white" transform="translate(96)"/>
</clipPath>
<clipPath id="clip4_23_542">
<rect width="25" height="25" fill="white" transform="translate(128)"/>
</clipPath>
</defs>
</svg>
