<svg width="20" height="20" viewBox="0 0 20 20" fill="none" xmlns="http://www.w3.org/2000/svg">
<g clip-path="url(#clip0_23_299)">
<path d="M13.2361 5.87116L18.2257 6.69928C18.6389 6.76569 18.9861 7.09381 19.118 7.54303C19.25 7.99616 19.1423 8.48834 18.8437 8.82428L15.2257 12.8165L16.0798 18.543C16.1493 19.0118 15.9791 19.4883 15.6319 19.7657C15.2882 20.043 14.8333 20.0782 14.4618 19.8555L10.0035 17.1797L5.54859 19.8555C5.17359 20.0782 4.71873 20.043 4.37498 19.7657C4.03123 19.4883 3.85762 19.0118 3.93053 18.543L4.7847 12.8165L1.16595 8.82428C0.866993 8.48834 0.760742 7.99616 0.891992 7.54303C1.0229 7.09381 1.36908 6.76569 1.7854 6.69928L6.77081 5.87116L9.00692 0.702016C9.19095 0.271703 9.57984 -0.00146484 10.0035 -0.00146484C10.4305 -0.00146484 10.8194 0.271703 11.0035 0.702016L13.2361 5.87116Z" fill="#EEAD2D"/>
</g>
<defs>
<clipPath id="clip0_23_299">
<rect width="20" height="20" rx="10" fill="white"/>
</clipPath>
</defs>
</svg>
