<svg width="30" height="30" viewBox="0 0 30 30" fill="none" xmlns="http://www.w3.org/2000/svg">
<path d="M29.9531 22.6756L28.5908 28.5819C28.3995 29.4168 27.6656 30.001 26.8061 30.001C12.0234 29.9999 0 17.9764 0 3.19322C0 2.33423 0.584121 1.59947 1.41914 1.40904L7.32539 0.0467316C8.18555 -0.152604 9.06445 0.29388 9.42188 1.10845L12.1477 7.46587C12.4663 8.2147 12.2514 9.08716 11.6215 9.60161L8.4668 12.1346C10.4578 16.1905 13.7555 19.4881 17.8125 21.4803L20.3953 18.328C20.9044 17.6963 21.7834 17.4778 22.5322 17.8021L28.8896 20.5273C29.6543 20.9295 30.1523 21.8202 29.9531 22.6756Z" fill="#FCFCFC"/>
</svg>
