<svg width="23" height="30" viewBox="0 0 23 30" fill="none" xmlns="http://www.w3.org/2000/svg">
<g clip-path="url(#clip0_23_660)">
<path d="M9.86133 29.25C6.80273 25.4883 0 16.3711 0 11.25C0 5.03672 5.03672 0 11.25 0C17.4609 0 22.5 5.03672 22.5 11.25C22.5 16.3711 15.6445 25.4883 12.6387 29.25C11.918 30.1465 10.582 30.1465 9.86133 29.25ZM11.25 15C13.3184 15 15 13.3184 15 11.25C15 9.18164 13.3184 7.5 11.25 7.5C9.18164 7.5 7.5 9.18164 7.5 11.25C7.5 13.3184 9.18164 15 11.25 15Z" fill="#FCFCFC"/>
</g>
<defs>
<clipPath id="clip0_23_660">
<rect width="22.5" height="30" fill="white"/>
</clipPath>
</defs>
</svg>
