<svg width="35" height="40" viewBox="0 0 35 40" fill="none" xmlns="http://www.w3.org/2000/svg">
<path d="M31.25 2.5H3.75C1.67969 2.5 0 4.17969 0 6.25V33.75C0 35.8203 1.67969 37.5 3.75 37.5H31.25C33.3203 37.5 35 35.8203 35 33.75V6.25C35 4.17969 33.3203 2.5 31.25 2.5ZM21.6641 32.4766C21.0078 32.5938 20.7656 32.1875 20.7656 31.8516C20.7656 31.4297 20.7812 29.2734 20.7812 27.5312C20.7812 26.3125 20.375 25.5391 19.8984 25.1328C22.7891 24.8125 25.8359 24.4141 25.8359 19.4219C25.8359 18 25.3281 17.2891 24.5 16.375C24.6328 16.0391 25.0781 14.6562 24.3672 12.8594C23.2812 12.5234 20.7969 14.2578 20.7969 14.2578C19.7656 13.9688 18.6484 13.8203 17.5469 13.8203C16.4453 13.8203 15.3281 13.9688 14.2969 14.2578C14.2969 14.2578 11.8125 12.5234 10.7266 12.8594C10.0156 14.6484 10.4531 16.0312 10.5938 16.375C9.76562 17.2891 9.375 18 9.375 19.4219C9.375 24.3906 12.2891 24.8125 15.1797 25.1328C14.8047 25.4688 14.4688 26.0469 14.3516 26.875C13.6094 27.2109 11.7109 27.7891 10.5781 25.7891C9.86719 24.5547 8.58594 24.4531 8.58594 24.4531C7.32031 24.4375 8.5 25.25 8.5 25.25C9.34375 25.6406 9.9375 27.1406 9.9375 27.1406C10.6953 29.4609 14.3203 28.6797 14.3203 28.6797C14.3203 29.7656 14.3359 31.5313 14.3359 31.8516C14.3359 32.1875 14.1016 32.5938 13.4375 32.4766C8.28125 30.75 4.67188 25.8438 4.67188 20.1094C4.67188 12.9375 10.1562 7.49219 17.3281 7.49219C24.5 7.49219 30.3125 12.9375 30.3125 20.1094C30.3203 25.8438 26.8203 30.7578 21.6641 32.4766ZM14 27.7031C13.8516 27.7344 13.7109 27.6719 13.6953 27.5703C13.6797 27.4531 13.7812 27.3516 13.9297 27.3203C14.0781 27.3047 14.2188 27.3672 14.2344 27.4688C14.2578 27.5703 14.1562 27.6719 14 27.7031ZM13.2578 27.6328C13.2578 27.7344 13.1406 27.8203 12.9844 27.8203C12.8125 27.8359 12.6953 27.75 12.6953 27.6328C12.6953 27.5313 12.8125 27.4453 12.9688 27.4453C13.1172 27.4297 13.2578 27.5156 13.2578 27.6328ZM12.1875 27.5469C12.1562 27.6484 12 27.6953 11.8672 27.6484C11.7188 27.6172 11.6172 27.5 11.6484 27.3984C11.6797 27.2969 11.8359 27.25 11.9688 27.2812C12.125 27.3281 12.2266 27.4453 12.1875 27.5469ZM11.2266 27.125C11.1562 27.2109 11.0078 27.1953 10.8906 27.0781C10.7734 26.9766 10.7422 26.8281 10.8203 26.7578C10.8906 26.6719 11.0391 26.6875 11.1562 26.8047C11.2578 26.9062 11.2969 27.0625 11.2266 27.125ZM10.5156 26.4141C10.4453 26.4609 10.3125 26.4141 10.2266 26.2969C10.1406 26.1797 10.1406 26.0469 10.2266 25.9922C10.3125 25.9219 10.4453 25.9766 10.5156 26.0938C10.6016 26.2109 10.6016 26.3516 10.5156 26.4141ZM10.0078 25.6562C9.9375 25.7266 9.82031 25.6875 9.73438 25.6094C9.64844 25.5078 9.63281 25.3906 9.70312 25.3359C9.77344 25.2656 9.89062 25.3047 9.97656 25.3828C10.0625 25.4844 10.0781 25.6016 10.0078 25.6562ZM9.48438 25.0781C9.45312 25.1484 9.35156 25.1641 9.26562 25.1094C9.16406 25.0625 9.11719 24.9766 9.14844 24.9062C9.17969 24.8594 9.26562 24.8359 9.36719 24.875C9.46875 24.9297 9.51562 25.0156 9.48438 25.0781Z" fill="#FCFCFC"/>
</svg>
