<svg width="35" height="40" viewBox="0 0 35 40" fill="none" xmlns="http://www.w3.org/2000/svg">
<path d="M32.5 2.5H2.49219C1.11719 2.5 0 3.63281 0 5.02344V34.9766C0 36.3672 1.11719 37.5 2.49219 37.5H32.5C33.875 37.5 35 36.3672 35 34.9766V5.02344C35 3.63281 33.875 2.5 32.5 2.5ZM10.5781 32.5H5.39062V15.7969H10.5859V32.5H10.5781ZM7.98438 13.5156C6.32031 13.5156 4.97656 12.1641 4.97656 10.5078C4.97656 8.85156 6.32031 7.5 7.98438 7.5C9.64062 7.5 10.9922 8.85156 10.9922 10.5078C10.9922 12.1719 9.64844 13.5156 7.98438 13.5156ZM30.0234 32.5H24.8359V24.375C24.8359 22.4375 24.7969 19.9453 22.1406 19.9453C19.4375 19.9453 19.0234 22.0547 19.0234 24.2344V32.5H13.8359V15.7969H18.8125V18.0781H18.8828C19.5781 16.7656 21.2734 15.3828 23.7969 15.3828C29.0469 15.3828 30.0234 18.8438 30.0234 23.3438V32.5Z" fill="#FCFCFC"/>
</svg>
