<svg width="165" height="31" viewBox="0 0 165 31" fill="none" xmlns="http://www.w3.org/2000/svg">
<path d="M0.8 6.24V1.2H20.4V6.24H0.8ZM7.28 30V1.2H13.92V30H7.28ZM34.9309 23.04C34.9309 22.16 34.6376 21.4133 34.0509 20.8C33.4643 20.1867 32.7043 19.6133 31.7709 19.08C30.8643 18.52 29.8909 17.9467 28.8509 17.36C27.8109 16.7467 26.8243 16.04 25.8909 15.24C24.9843 14.44 24.2376 13.4667 23.6509 12.32C23.0643 11.1733 22.7709 9.77333 22.7709 8.12H29.4109C29.4109 8.97333 29.7043 9.72 30.2909 10.36C30.8776 10.9733 31.6243 11.56 32.5309 12.12C33.4643 12.6533 34.4509 13.2267 35.4909 13.84C36.5309 14.4267 37.5043 15.12 38.4109 15.92C39.3443 16.72 40.1043 17.6933 40.6909 18.84C41.2776 19.9867 41.5709 21.3867 41.5709 23.04H34.9309ZM22.7709 8.16C22.7709 6.69333 23.1843 5.4 24.0109 4.28C24.8376 3.13333 25.9576 2.22667 27.3709 1.56C28.7843 0.893331 30.3843 0.559998 32.1709 0.559998V5.6C31.3176 5.6 30.6376 5.82667 30.1309 6.28C29.6509 6.73333 29.4109 7.36 29.4109 8.16H22.7709ZM41.5709 23.04C41.5709 24.5067 41.1576 25.8133 40.3309 26.96C39.5043 28.08 38.3843 28.9733 36.9709 29.64C35.5576 30.3067 33.9576 30.64 32.1709 30.64V25.6C33.0243 25.6 33.6909 25.3733 34.1709 24.92C34.6776 24.4667 34.9309 23.84 34.9309 23.04H41.5709ZM34.7309 8.76C34.5976 7.74667 34.3043 6.97333 33.8509 6.44C33.4243 5.88 32.8643 5.6 32.1709 5.6V0.559998C33.6909 0.559998 35.0243 0.839998 36.1709 1.4C37.3443 1.96 38.3043 2.77333 39.0509 3.84C39.7976 4.90667 40.2909 6.2 40.5309 7.72L34.7309 8.76ZM28.5709 20.84C28.6509 22.3333 29.0109 23.5067 29.6509 24.36C30.2909 25.1867 31.1309 25.6 32.1709 25.6V30.64C29.4243 30.64 27.2109 29.8667 25.5309 28.32C23.8509 26.7733 22.8776 24.6267 22.6109 21.88L28.5709 20.84ZM53.5688 16.76V12.92C54.4221 12.92 55.0888 12.6267 55.5688 12.04C56.0754 11.4533 56.3288 10.6267 56.3288 9.56H62.9688C62.9688 10.92 62.5554 12.1467 61.7288 13.24C60.9021 14.3333 59.7821 15.2 58.3688 15.84C56.9554 16.4533 55.3554 16.76 53.5688 16.76ZM51.6088 30V24.96H54.0088V30H51.6088ZM51.6088 17.56V12.92H53.9688V17.56H51.6088ZM56.7288 21.64V20.88H63.3688V21.64H56.7288ZM56.7288 20.92C56.7288 19.8533 56.4754 19.0267 55.9688 18.44C55.4888 17.8533 54.8221 17.56 53.9688 17.56V13.72C55.7554 13.72 57.3554 14.04 58.7688 14.68C60.1821 15.2933 61.3021 16.1467 62.1288 17.24C62.9554 18.3067 63.3688 19.5333 63.3688 20.92H56.7288ZM51.6088 6.24V1.2H53.6088V6.24H51.6088ZM62.9688 9.6H56.3288C56.3288 8.53333 56.0754 7.70667 55.5688 7.12C55.0888 6.53333 54.4221 6.24 53.5688 6.24V1.2C55.3554 1.2 56.9554 1.57333 58.3688 2.32C59.7821 3.04 60.9021 4.04 61.7288 5.32C62.5554 6.57333 62.9688 8 62.9688 9.6ZM63.3688 21.6C63.3688 23.2 62.9554 24.64 62.1288 25.92C61.3021 27.1733 60.1821 28.1733 58.7688 28.92C57.3554 29.64 55.7554 30 53.9688 30V24.96C54.8221 24.96 55.4888 24.6667 55.9688 24.08C56.4754 23.4933 56.7288 22.6667 56.7288 21.6H63.3688ZM45.3688 30V1.2H52.0088V30H45.3688Z" fill="#FCFCFC"/>
<path d="M72.5963 18.12V13.08H80.3563V18.12H72.5963ZM67.5563 1.2H74.1963V30H67.5563V1.2ZM72.9963 1.2H82.3563V6.24H72.9963V1.2ZM95.1522 21.04V18.16H101.792V21.04H95.1522ZM83.3922 21.04V18.16H90.0322V21.04H83.3922ZM92.3522 13.64V8.6H92.8322V13.64H92.3522ZM92.3522 30.6V25.56H92.8322V30.6H92.3522ZM83.3922 18.2C83.3922 16.36 83.7789 14.72 84.5522 13.28C85.3522 11.84 86.4322 10.7067 87.7922 9.88C89.1522 9.02667 90.6855 8.6 92.3922 8.6V13.64C91.6455 13.64 91.0589 14.04 90.6322 14.84C90.2322 15.64 90.0322 16.76 90.0322 18.2H83.3922ZM101.792 18.2H95.1522C95.1522 16.76 94.9389 15.64 94.5122 14.84C94.1122 14.04 93.5389 13.64 92.7922 13.64V8.6C94.5255 8.6 96.0589 9.02667 97.3922 9.88C98.7522 10.7067 99.8189 11.84 100.592 13.28C101.392 14.72 101.792 16.36 101.792 18.2ZM83.3922 21H90.0322C90.0322 22.44 90.2322 23.56 90.6322 24.36C91.0589 25.16 91.6455 25.56 92.3922 25.56V30.6C90.6855 30.6 89.1522 30.1867 87.7922 29.36C86.4322 28.5067 85.3522 27.36 84.5522 25.92C83.7789 24.4533 83.3922 22.8133 83.3922 21ZM101.792 21C101.792 22.8133 101.392 24.4533 100.592 25.92C99.8189 27.36 98.7522 28.5067 97.3922 29.36C96.0589 30.1867 94.5255 30.6 92.7922 30.6V25.56C93.5389 25.56 94.1122 25.16 94.5122 24.36C94.9389 23.56 95.1522 22.44 95.1522 21H101.792ZM116.363 21.04V18.16H123.003V21.04H116.363ZM104.603 21.04V18.16H111.243V21.04H104.603ZM113.563 13.64V8.6H114.043V13.64H113.563ZM113.563 30.6V25.56H114.043V30.6H113.563ZM104.603 18.2C104.603 16.36 104.99 14.72 105.763 13.28C106.563 11.84 107.643 10.7067 109.003 9.88C110.363 9.02667 111.896 8.6 113.603 8.6V13.64C112.856 13.64 112.27 14.04 111.843 14.84C111.443 15.64 111.243 16.76 111.243 18.2H104.603ZM123.003 18.2H116.363C116.363 16.76 116.15 15.64 115.723 14.84C115.323 14.04 114.75 13.64 114.003 13.64V8.6C115.736 8.6 117.27 9.02667 118.603 9.88C119.963 10.7067 121.03 11.84 121.803 13.28C122.603 14.72 123.003 16.36 123.003 18.2ZM104.603 21H111.243C111.243 22.44 111.443 23.56 111.843 24.36C112.27 25.16 112.856 25.56 113.603 25.56V30.6C111.896 30.6 110.363 30.1867 109.003 29.36C107.643 28.5067 106.563 27.36 105.763 25.92C104.99 24.4533 104.603 22.8133 104.603 21ZM123.003 21C123.003 22.8133 122.603 24.4533 121.803 25.92C121.03 27.36 119.963 28.5067 118.603 29.36C117.27 30.1867 115.736 30.6 114.003 30.6V25.56C114.75 25.56 115.323 25.16 115.723 24.36C116.15 23.56 116.363 22.44 116.363 21H123.003ZM144.614 9.28H137.974V1.2H144.614V9.28ZM137.974 30V9.2H144.614V30H137.974ZM126.214 22.24V16.96H132.854V22.24H126.214ZM132.854 16.96H126.214C126.214 15.36 126.521 13.9333 127.134 12.68C127.747 11.4 128.574 10.4 129.614 9.68C130.681 8.93333 131.881 8.56 133.214 8.56L135.214 13.6C134.467 13.6 133.881 13.8933 133.454 14.48C133.054 15.0667 132.854 15.8933 132.854 16.96ZM139.814 17.36H137.974C137.974 16.1867 137.721 15.2667 137.214 14.6C136.734 13.9333 136.067 13.6 135.214 13.6L133.214 8.56C134.467 8.56 135.587 8.94667 136.574 9.72C137.587 10.4667 138.374 11.5067 138.934 12.84C139.521 14.1733 139.814 15.68 139.814 17.36ZM132.854 22.24C132.854 23.3067 133.054 24.1333 133.454 24.72C133.881 25.3067 134.467 25.6 135.214 25.6L133.214 30.64C131.881 30.64 130.681 30.28 129.614 29.56C128.574 28.8133 127.747 27.8133 127.134 26.56C126.521 25.28 126.214 23.84 126.214 22.24H132.854ZM139.814 21.84C139.814 23.52 139.521 25.0267 138.934 26.36C138.374 27.6667 137.587 28.7067 136.574 29.48C135.587 30.2533 134.467 30.64 133.214 30.64L135.214 25.6C136.067 25.6 136.734 25.2667 137.214 24.6C137.721 23.9333 137.974 23.0133 137.974 21.84H139.814ZM158.601 24.2C158.601 23.7467 158.347 23.36 157.841 23.04C157.361 22.72 156.721 22.4133 155.921 22.12C155.147 21.8267 154.321 21.5067 153.441 21.16C152.587 20.8133 151.761 20.3867 150.961 19.88C150.187 19.3733 149.547 18.7467 149.041 18C148.561 17.2267 148.321 16.2933 148.321 15.2C148.321 15.2 148.534 15.2 148.961 15.2C149.387 15.2 149.907 15.2 150.521 15.2C151.134 15.2 151.747 15.2 152.361 15.2C152.974 15.2 153.494 15.2 153.921 15.2C154.347 15.2 154.561 15.2 154.561 15.2C154.561 15.6533 154.801 16.04 155.281 16.36C155.787 16.68 156.427 16.9867 157.201 17.28C158.001 17.5733 158.827 17.8933 159.681 18.24C160.561 18.5867 161.387 19.0133 162.161 19.52C162.961 20.0267 163.601 20.6533 164.081 21.4C164.587 22.1467 164.841 23.08 164.841 24.2C164.841 24.2 164.627 24.2 164.201 24.2C163.774 24.2 163.254 24.2 162.641 24.2C162.027 24.2 161.414 24.2 160.801 24.2C160.187 24.2 159.667 24.2 159.241 24.2C158.814 24.2 158.601 24.2 158.601 24.2ZM156.361 30.64V25.6C157.054 25.6 157.601 25.48 158.001 25.24C158.401 24.9733 158.601 24.6267 158.601 24.2H164.841C164.841 25.5333 164.494 26.6933 163.801 27.68C163.134 28.64 162.174 29.3733 160.921 29.88C159.667 30.3867 158.147 30.64 156.361 30.64ZM148.321 15.2C148.321 13.92 148.667 12.7867 149.361 11.8C150.081 10.7867 151.054 10 152.281 9.44C153.507 8.85333 154.894 8.56 156.441 8.56V13.6C155.907 13.6 155.454 13.76 155.081 14.08C154.734 14.3733 154.561 14.7467 154.561 15.2H148.321ZM153.841 22.44C153.974 23.4267 154.267 24.2 154.721 24.76C155.174 25.32 155.734 25.6 156.401 25.6V30.64C154.907 30.64 153.574 30.36 152.401 29.8C151.227 29.24 150.267 28.4267 149.521 27.36C148.801 26.2667 148.307 24.9733 148.041 23.48L153.841 22.44ZM158.961 16.76C158.827 15.7467 158.534 14.9733 158.081 14.44C157.654 13.88 157.094 13.6 156.401 13.6V8.56C157.921 8.56 159.254 8.84 160.401 9.4C161.574 9.96 162.534 10.7733 163.281 11.84C164.027 12.9067 164.521 14.2 164.761 15.72L158.961 16.76Z" fill="#FF6700"/>
</svg>
