<svg width="109" height="41" viewBox="0 0 109 41" fill="none" xmlns="http://www.w3.org/2000/svg">
<path d="M0.28 21.48L0.64 19.84L14.12 13.04L13.84 16.24L4.96 20.88L12.24 24.68L11.36 27.76L0.28 21.48ZM95.0131 24.56L103.893 19.92L96.6131 16.12L97.4931 13.04L108.573 19.32L108.213 20.96L94.7331 27.76L95.0131 24.56Z" fill="#FF6700"/>
<path d="M26.2959 4.52H25.8159C23.4426 4.52 21.5893 5.12 20.2559 6.32C18.9493 7.49333 18.2959 9.58667 18.2959 12.6C18.2959 13.5867 18.3893 14.28 18.5759 14.68C18.7626 15.0533 18.8559 15.2667 18.8559 15.32C17.4159 15.32 16.3359 15.0267 15.6159 14.44C14.9226 13.8267 14.5759 12.8267 14.5759 11.44C14.5759 9.54667 15.0426 7.82667 15.9759 6.28C16.9093 4.70667 18.3893 3.44 20.4159 2.48C22.4693 1.52 25.0693 1.04 28.2159 1.04C29.9759 1.04 31.8693 1.2 33.8959 1.52C35.6026 1.81333 37.1226 1.96 38.4559 1.96C40.1626 1.96 41.7093 1.68 43.0959 1.12C43.0426 2.85333 42.6026 4.13333 41.7759 4.96C40.9493 5.78667 39.7226 6.2 38.0959 6.2C37.2426 6.2 36.3893 6.13333 35.5359 6C34.6826 5.86667 33.4693 5.64 31.8959 5.32L26.3759 31H20.6159L26.2959 4.52ZM43.3938 31.72C41.7138 31.72 40.2338 31.4267 38.9538 30.84C37.6738 30.2533 36.6871 29.44 35.9938 28.4C35.3004 27.3333 34.9538 26.1067 34.9538 24.72C34.9538 23.5467 35.1938 22.48 35.6738 21.52C36.1804 20.56 36.8471 19.8 37.6738 19.24C38.5271 18.68 39.4604 18.4 40.4738 18.4C41.4071 18.4 42.1938 18.64 42.8338 19.12C43.4738 19.5733 43.8738 20.2133 44.0338 21.04C42.6471 21.04 41.5404 21.4133 40.7138 22.16C39.8871 22.88 39.4737 23.8667 39.4737 25.12C39.4737 26.2667 39.8204 27.1867 40.5138 27.88C41.2071 28.5733 42.1271 28.92 43.2738 28.92C44.6871 28.92 45.8471 28.4533 46.7538 27.52C47.6871 26.56 48.1538 25.36 48.1538 23.92C48.1538 22.6667 47.8071 21.48 47.1138 20.36C46.4204 19.24 45.3804 17.88 43.9938 16.28C42.5538 14.6267 41.4604 13.2133 40.7138 12.04C39.9938 10.84 39.6338 9.53333 39.6338 8.12C39.6338 6.73333 40.0204 5.49333 40.7938 4.4C41.5671 3.28 42.6338 2.4 43.9938 1.76C45.3538 1.12 46.8871 0.799998 48.5938 0.799998C50.7538 0.799998 52.4738 1.30667 53.7538 2.32C55.0604 3.33333 55.7138 4.69333 55.7138 6.4C55.7138 7.52 55.4338 8.42667 54.8738 9.12C54.3138 9.81333 53.5804 10.16 52.6738 10.16C51.6604 10.16 50.8471 9.74667 50.2338 8.92C50.7404 8.54666 51.1404 8.05333 51.4338 7.44C51.7271 6.82666 51.8738 6.18667 51.8738 5.52C51.8738 4.66667 51.6204 3.98667 51.1138 3.48C50.6071 2.97333 49.9138 2.72 49.0338 2.72C47.9671 2.72 47.0871 3.10667 46.3938 3.88C45.7271 4.62667 45.3938 5.58667 45.3938 6.76C45.3938 7.82667 45.7004 8.82667 46.3138 9.76C46.9271 10.6667 47.8871 11.84 49.1938 13.28C50.2604 14.4267 51.1138 15.4133 51.7538 16.24C52.4204 17.0667 52.9804 18.0267 53.4338 19.12C53.9138 20.1867 54.1537 21.3467 54.1537 22.6C54.1537 24.3067 53.6738 25.8533 52.7138 27.24C51.7804 28.6267 50.4871 29.72 48.8338 30.52C47.2071 31.32 45.3938 31.72 43.3938 31.72ZM71.8863 31.68C70.8196 31.68 69.8863 31.4533 69.0863 31C68.3129 30.5733 67.9263 29.8133 67.9263 28.72C67.9263 28.0267 68.0996 27.2533 68.4463 26.4C68.9263 26.9333 69.3663 27.3067 69.7663 27.52C70.1929 27.7333 70.6463 27.84 71.1263 27.84C72.4596 27.84 73.4463 27.0933 74.0863 25.6C74.7529 24.1067 75.0863 22.4533 75.0863 20.64C75.0863 17.2533 73.8196 15.56 71.2863 15.56C70.5663 15.56 69.9529 15.6 69.4463 15.68L66.1663 31H60.4063L65.8463 5.56L71.7663 4.76L69.8863 13.64H70.1263C71.1396 13.64 72.0863 13.32 72.9663 12.68C73.8463 12.0133 74.5529 11.1867 75.0863 10.2C75.6196 9.18667 75.8863 8.17333 75.8863 7.16C75.8863 5.93333 75.4463 4.90667 74.5663 4.08C73.7129 3.25333 72.3929 2.84 70.6063 2.84C68.9796 2.84 67.3929 3.21333 65.8463 3.96C64.2996 4.68 63.0329 5.77333 62.0463 7.24C61.0863 8.70667 60.6063 10.48 60.6063 12.56C60.6063 13.5467 60.6996 14.24 60.8863 14.64C61.0729 15.0133 61.1663 15.2267 61.1663 15.28C59.7529 15.28 58.6863 15 57.9663 14.44C57.2463 13.8533 56.8863 12.9067 56.8863 11.6C56.8863 9.78667 57.5663 8.06667 58.9263 6.44C60.2863 4.81333 62.0863 3.50667 64.3263 2.52C66.5663 1.50666 68.9263 0.999998 71.4063 0.999998C73.2729 0.999998 74.8463 1.29333 76.1263 1.88C77.4063 2.46667 78.3529 3.24 78.9663 4.2C79.6063 5.16 79.9262 6.21333 79.9262 7.36C79.9262 8.58667 79.5796 9.77333 78.8863 10.92C78.1929 12.0667 77.2063 13 75.9263 13.72C77.5263 14.0133 78.7129 14.76 79.4863 15.96C80.2596 17.1333 80.6463 18.5333 80.6463 20.16C80.6463 21.68 80.3529 23.3333 79.7663 25.12C79.2063 26.9067 78.2596 28.4533 76.9263 29.76C75.6196 31.04 73.9396 31.68 71.8863 31.68ZM90.9513 0.999998H93.8313L85.3513 41H82.4713L90.9513 0.999998Z" fill="#0F0F0F"/>
</svg>
