<svg width="52" height="70" viewBox="0 0 52 70" fill="none" xmlns="http://www.w3.org/2000/svg">
<path d="M42.5927 0H8.51858C4.99138 0 2.12969 2.93945 2.12969 6.5625V63.4375C2.12969 67.0605 4.99138 70 8.51858 70H42.5927C46.1199 70 48.9815 67.0605 48.9815 63.4375V6.5625C48.9815 2.93945 46.1199 0 42.5927 0ZM31.9445 61.127C31.9445 62.4531 30.9862 63.4375 29.8149 63.4375H21.1766C20.1251 63.4375 19.1667 62.4531 19.1667 61.25C19.1667 60.0469 20.1251 59.0625 21.2964 59.0625H29.8149C30.9862 59.0625 31.9445 60.0469 31.9445 61.127ZM40.463 52.5H10.6482V8.75H40.463V52.5Z" fill="#FF6700"/>
</svg>
