<svg width="30" height="50" viewBox="0 0 30 50" fill="none" xmlns="http://www.w3.org/2000/svg">
<g clip-path="url(#clip0_106_484)">
<path d="M3.4375 50C2.47917 50 1.66667 49.6667 1 49C0.333334 48.3333 0 47.5208 0 46.5625V3.4375C0 2.47917 0.333334 1.66667 1 1C1.66667 0.333334 2.47917 0 3.4375 0H26.5625C27.5208 0 28.3333 0.333334 29 1C29.6667 1.66667 30 2.47917 30 3.4375V46.5625C30 47.5208 29.6667 48.3333 29 49C28.3333 49.6667 27.5208 50 26.5625 50H3.4375ZM1.9375 40.3125V46.5625C1.9375 46.9375 2.09375 47.2813 2.40625 47.5938C2.71875 47.9063 3.0625 48.0625 3.4375 48.0625H26.5625C26.9375 48.0625 27.2813 47.9063 27.5938 47.5938C27.9063 47.2813 28.0625 46.9375 28.0625 46.5625V40.3125H1.9375ZM15 45.8125C15.4583 45.8125 15.8437 45.6563 16.1562 45.3438C16.4687 45.0313 16.625 44.6458 16.625 44.1875C16.625 43.7292 16.4583 43.3333 16.125 43C15.7917 42.6667 15.4167 42.5 15 42.5C14.5417 42.5 14.1563 42.6667 13.8438 43C13.5313 43.3333 13.375 43.7292 13.375 44.1875C13.375 44.6458 13.5417 45.0313 13.875 45.3438C14.2083 45.6563 14.5833 45.8125 15 45.8125ZM1.9375 38.375H28.0625V7.3125H1.9375V38.375ZM1.9375 5.375H28.0625V3.4375C28.0625 3.0625 27.9063 2.71875 27.5938 2.40625C27.2813 2.09375 26.9375 1.9375 26.5625 1.9375H3.4375C3.0625 1.9375 2.71875 2.09375 2.40625 2.40625C2.09375 2.71875 1.9375 3.0625 1.9375 3.4375V5.375ZM1.9375 40.3125V48.0625V46.5625V40.3125ZM1.9375 5.375V1.9375V5.375Z" fill="#FF6700"/>
</g>
<defs>
<clipPath id="clip0_106_484">
<rect width="30" height="50" fill="white"/>
</clipPath>
</defs>
</svg>
