<svg width="55" height="55" viewBox="0 0 55 55" fill="none" xmlns="http://www.w3.org/2000/svg">
<circle cx="27.5" cy="27.5" r="27.5" fill="#FCFCFC"/>
<g clip-path="url(#clip0_23_648)">
<path d="M39.4162 21.3897C39.4353 21.6562 39.4353 21.9227 39.4353 22.1892C39.4353 30.3173 33.2487 39.6828 21.9416 39.6828C18.4581 39.6828 15.2221 38.6739 12.5 36.9227C12.9949 36.9798 13.4708 36.9988 13.9848 36.9988C16.8591 36.9988 19.5051 36.028 21.618 34.372C18.915 34.3148 16.6497 32.5445 15.8693 30.108C16.25 30.165 16.6307 30.2031 17.0305 30.2031C17.5825 30.2031 18.1346 30.127 18.6485 29.9938C15.8312 29.4227 13.7182 26.9481 13.7182 23.9595V23.8834C14.5367 24.3402 15.4886 24.6258 16.4974 24.6638C14.8413 23.5597 13.7563 21.6752 13.7563 19.5432C13.7563 18.4011 14.0608 17.3542 14.5938 16.4404C17.6205 20.1714 22.17 22.6079 27.2715 22.8745C27.1763 22.4176 27.1192 21.9418 27.1192 21.4659C27.1192 18.0775 29.8603 15.3174 33.2677 15.3174C35.038 15.3174 36.6369 16.0598 37.7601 17.259C39.1496 16.9925 40.4821 16.4785 41.6623 15.7742C41.2054 17.2019 40.2346 18.4012 38.9593 19.1625C40.1966 19.0294 41.3959 18.6866 42.4999 18.2108C41.6625 19.429 40.6154 20.514 39.4162 21.3897Z" fill="#FF6700"/>
</g>
<defs>
<clipPath id="clip0_23_648">
<rect width="30" height="30" fill="white" transform="translate(12.5 12.5)"/>
</clipPath>
</defs>
</svg>
