<svg width="55" height="55" viewBox="0 0 55 55" fill="none" xmlns="http://www.w3.org/2000/svg">
<circle cx="27.5" cy="27.5" r="27.5" fill="#FCFCFC"/>
<g clip-path="url(#clip0_23_646)">
<path d="M27.1309 20.7617C23.4043 20.7617 20.3984 23.7676 20.3984 27.4941C20.3984 31.2207 23.4043 34.2266 27.1309 34.2266C30.8574 34.2266 33.8633 31.2207 33.8633 27.4941C33.8633 23.7676 30.8574 20.7617 27.1309 20.7617ZM27.1309 31.8711C24.7227 31.8711 22.7539 29.9082 22.7539 27.4941C22.7539 25.0801 24.7168 23.1172 27.1309 23.1172C29.5449 23.1172 31.5078 25.0801 31.5078 27.4941C31.5078 29.9082 29.5391 31.8711 27.1309 31.8711ZM35.709 20.4863C35.709 21.3594 35.0059 22.0566 34.1387 22.0566C33.2656 22.0566 32.5684 21.3535 32.5684 20.4863C32.5684 19.6191 33.2715 18.916 34.1387 18.916C35.0059 18.916 35.709 19.6191 35.709 20.4863ZM40.168 22.0801C40.0684 19.9766 39.5879 18.1133 38.0469 16.5781C36.5117 15.043 34.6484 14.5625 32.5449 14.457C30.377 14.334 23.8789 14.334 21.7109 14.457C19.6133 14.5566 17.75 15.0371 16.209 16.5723C14.668 18.1074 14.1934 19.9707 14.0879 22.0742C13.9648 24.2422 13.9648 30.7402 14.0879 32.9082C14.1875 35.0117 14.668 36.875 16.209 38.4102C17.75 39.9453 19.6074 40.4258 21.7109 40.5312C23.8789 40.6543 30.377 40.6543 32.5449 40.5312C34.6484 40.4316 36.5117 39.9512 38.0469 38.4102C39.582 36.875 40.0625 35.0117 40.168 32.9082C40.291 30.7402 40.291 24.248 40.168 22.0801ZM37.3672 35.2344C36.9102 36.3828 36.0254 37.2676 34.8711 37.7305C33.1426 38.416 29.041 38.2578 27.1309 38.2578C25.2207 38.2578 21.1133 38.4102 19.3906 37.7305C18.2422 37.2734 17.3574 36.3887 16.8945 35.2344C16.209 33.5059 16.3672 29.4043 16.3672 27.4941C16.3672 25.584 16.2148 21.4766 16.8945 19.7539C17.3516 18.6055 18.2363 17.7207 19.3906 17.2578C21.1191 16.5723 25.2207 16.7305 27.1309 16.7305C29.041 16.7305 33.1484 16.5781 34.8711 17.2578C36.0195 17.7148 36.9043 18.5996 37.3672 19.7539C38.0527 21.4824 37.8945 25.584 37.8945 27.4941C37.8945 29.4043 38.0527 33.5117 37.3672 35.2344Z" fill="#FF6700"/>
</g>
<defs>
<clipPath id="clip0_23_646">
<rect width="26.25" height="30" fill="white" transform="translate(14 12.5)"/>
</clipPath>
</defs>
</svg>
