<svg width="50" height="50" viewBox="0 0 50 50" fill="none" xmlns="http://www.w3.org/2000/svg">
<g clip-path="url(#clip0_106_486)">
<path d="M35.625 37.2222L37.2222 35.625L26.1806 24.5139V10.6944H24.0278V25.4861L35.625 37.2222ZM25 50C21.5741 50 18.3449 49.3403 15.3125 48.0208C12.2801 46.7014 9.62963 44.9074 7.36111 42.6389C5.09259 40.3704 3.29861 37.7315 1.97917 34.7222C0.659722 31.713 0 28.4722 0 25C0 21.5741 0.659722 18.3449 1.97917 15.3125C3.29861 12.2801 5.09259 9.62963 7.36111 7.36111C9.62963 5.09259 12.2685 3.29861 15.2778 1.97917C18.287 0.659722 21.5278 0 25 0C28.4259 0 31.6551 0.659722 34.6875 1.97917C37.7199 3.29861 40.3704 5.09259 42.6389 7.36111C44.9074 9.62963 46.7014 12.2685 48.0208 15.2778C49.3403 18.287 50 21.5278 50 25C50 28.4259 49.3403 31.6551 48.0208 34.6875C46.7014 37.7199 44.9074 40.3704 42.6389 42.6389C40.3704 44.9074 37.7315 46.7014 34.7222 48.0208C31.713 49.3403 28.4722 50 25 50ZM25 47.8472C31.2963 47.8472 36.6782 45.6134 41.1458 41.1458C45.6134 36.6782 47.8472 31.2963 47.8472 25C47.8472 18.7037 45.6134 13.3218 41.1458 8.85417C36.6782 4.38657 31.2963 2.15278 25 2.15278C18.7037 2.15278 13.3218 4.38657 8.85417 8.85417C4.38657 13.3218 2.15278 18.7037 2.15278 25C2.15278 31.2963 4.38657 36.6782 8.85417 41.1458C13.3218 45.6134 18.7037 47.8472 25 47.8472Z" fill="#FF6700"/>
</g>
<defs>
<clipPath id="clip0_106_486">
<rect width="50" height="50" fill="white"/>
</clipPath>
</defs>
</svg>
