<svg width="50" height="50" viewBox="0 0 50 50" fill="none" xmlns="http://www.w3.org/2000/svg">
<g clip-path="url(#clip0_106_490)">
<path d="M23.8194 43.6111H26.0417V40.2778C28.2639 40.1852 30.2662 39.4907 32.0486 38.1944C33.831 36.8981 34.7222 35 34.7222 32.5C34.7222 30.3704 34.0856 28.6574 32.8125 27.3611C31.5394 26.0648 29.2593 24.7685 25.9722 23.4722C22.9167 22.3148 20.9375 21.3194 20.0347 20.4861C19.1319 19.6528 18.6806 18.4491 18.6806 16.875C18.6806 15.3935 19.2824 14.1435 20.4861 13.125C21.6898 12.1065 23.2407 11.5972 25.1389 11.5972C26.5278 11.5972 27.7315 11.9097 28.75 12.5347C29.7685 13.1597 30.6481 14.0046 31.3889 15.0694L33.2639 14.2361C32.4769 12.8935 31.4699 11.8287 30.2431 11.0417C29.0162 10.2546 27.662 9.81481 26.1806 9.72222V6.38889H23.9583V9.72222C21.5046 10.0463 19.6412 10.8796 18.3681 12.2222C17.0949 13.5648 16.4583 15.1157 16.4583 16.875C16.4583 18.9583 17.1065 20.6019 18.4028 21.8056C19.6991 23.0093 21.8519 24.1898 24.8611 25.3472C27.963 26.5509 30.0231 27.6389 31.0417 28.6111C32.0602 29.5833 32.5694 30.8796 32.5694 32.5C32.5694 34.4444 31.8287 35.8912 30.3472 36.8403C28.8657 37.7894 27.2222 38.2639 25.4167 38.2639C23.75 38.2639 22.2106 37.7894 20.7986 36.8403C19.3866 35.8912 18.3102 34.5602 17.5694 32.8472L15.5556 33.6806C16.4815 35.5324 17.6273 36.956 18.9931 37.9514C20.3588 38.9468 21.9676 39.6759 23.8194 40.1389V43.6111ZM25 50C21.5741 50 18.3449 49.3403 15.3125 48.0208C12.2801 46.7014 9.62963 44.9074 7.36111 42.6389C5.09259 40.3704 3.29861 37.7199 1.97917 34.6875C0.659722 31.6551 0 28.4259 0 25C0 21.5278 0.659722 18.2755 1.97917 15.2431C3.29861 12.2106 5.09259 9.57176 7.36111 7.32639C9.62963 5.08102 12.2801 3.29861 15.3125 1.97917C18.3449 0.659722 21.5741 0 25 0C28.4722 0 31.7245 0.659722 34.7569 1.97917C37.7893 3.29861 40.4282 5.08102 42.6736 7.32639C44.919 9.57176 46.7014 12.2106 48.0208 15.2431C49.3403 18.2755 50 21.5278 50 25C50 28.4259 49.3403 31.6551 48.0208 34.6875C46.7014 37.7199 44.919 40.3704 42.6736 42.6389C40.4282 44.9074 37.7893 46.7014 34.7569 48.0208C31.7245 49.3403 28.4722 50 25 50ZM25 47.8472C31.3426 47.8472 36.7361 45.625 41.1806 41.1806C45.625 36.7361 47.8472 31.3426 47.8472 25C47.8472 18.6574 45.625 13.2639 41.1806 8.81944C36.7361 4.375 31.3426 2.15278 25 2.15278C18.6574 2.15278 13.2639 4.375 8.81944 8.81944C4.375 13.2639 2.15278 18.6574 2.15278 25C2.15278 31.3426 4.375 36.7361 8.81944 41.1806C13.2639 45.625 18.6574 47.8472 25 47.8472Z" fill="#FF6700"/>
</g>
<defs>
<clipPath id="clip0_106_490">
<rect width="50" height="50" fill="white"/>
</clipPath>
</defs>
</svg>
